<svg width="56" height="64" viewBox="0 0 56 64" fill="none" xmlns="http://www.w3.org/2000/svg">
<path d="M12 54.6857L17.18 51.3028L14.4 48.9142C14.15 48.6971 14 48.3542 14 48V45.3828C13.37 45.5885 12.7 45.7142 12 45.7142C11.3 45.7142 10.63 45.5885 10 45.3828V48C10 48.3542 9.85 48.6971 9.6 48.9142L6.82 51.3028L12 54.6857Z" fill="white"/>
<path d="M19.25 52.5828L12.5 56.9942C12.19 57.1885 11.81 57.1885 11.5 56.9942L4.75 52.5828C2.11 52.7313 0 55.2342 0 58.2856V63.9999H24V58.2856C24 55.2342 21.89 52.7313 19.25 52.5828Z" fill="white"/>
<path d="M40 24.5714V21.4126C38.189 19.9646 37 17.568 37 14.8571V8C37 7.56686 37.214 7.17143 37.553 6.97714L41.553 4.69143C41.766 4.56914 42.012 4.53714 42.242 4.60457L50.242 6.89029C50.687 7.01714 51 7.47429 51 7.99886V14.856C51 17.568 49.811 19.9646 48 21.4114V24.5703L51.357 27.448C51.925 27.4811 52.476 27.5851 53 27.7646V10.2857C53 4.61486 48.963 0 44 0C41.598 0 39.338 1.07086 37.637 3.01371C35.937 4.95771 35 7.53943 35 10.2857V27.7657C35.524 27.5863 36.076 27.4823 36.643 27.4491L40 24.5714Z" fill="white"/>
<path d="M17 37.7144V31.7487L10.12 29.783L7 31.5658V37.7144C7 40.8687 9.24 43.4287 12 43.4287C14.76 43.4287 17 40.8687 17 37.7144Z" fill="white"/>
<path d="M5 32V30.8572C5 30.4229 5.21 30.0229 5.55 29.84L9.55 27.5543C9.77 27.4286 10.01 27.3943 10.24 27.4629L18.24 29.7486C18.43 29.8058 18.59 29.9315 18.72 30.08C19.53 29.0515 20 27.7029 20 26.2857C20 24.4 18.65 22.8572 17 22.8572H9C6.24 22.8572 4 25.4172 4 28.5715V30.8572C4 31.4857 4.45 32 5 32Z" fill="white"/>
<path d="M51.254 29.7212L44.496 34.1349C44.189 34.336 43.81 34.336 43.504 34.1349L36.746 29.7212C34.106 29.8732 32 32.3749 32 35.4286V41.1429H56V35.4286C56 32.3749 53.894 29.8732 51.254 29.7212Z" fill="white"/>
<path d="M49 14.8572V8.89264L42.116 6.92578L39 8.70635V14.8572C39 18.0081 41.243 20.5715 44 20.5715C46.757 20.5715 49 18.0081 49 14.8572Z" fill="white"/>
<path d="M44 31.8263L49.183 28.4423L46.401 26.0572C46.149 25.8423 46.001 25.5029 46.001 25.1429V22.52C45.367 22.7372 44.696 22.8572 44.001 22.8572C43.306 22.8572 42.635 22.7372 42.001 22.52V25.1429C42.001 25.5029 41.853 25.8412 41.601 26.0572L38.819 28.4423L44.002 31.8263H44Z" fill="white"/>
<path d="M28 58.2856H26V60.5714H28V58.2856Z" fill="white"/>
<path d="M43 54.857C43 56.7473 41.654 58.2856 40 58.2856H30V60.5713H40C42.757 60.5713 45 58.0079 45 54.857V43.4285H43V54.857Z" fill="white"/>
<path d="M11 16.0001V20.5715H13V16.0001C13 15.3704 13.448 14.8572 14 14.8572H29V12.5715H14C12.346 12.5715 11 14.1098 11 16.0001Z" fill="white"/>
<path d="M33 12.5715H31V14.8572H33V12.5715Z" fill="white"/>
</svg>
