<svg width="37" height="45" viewBox="0 0 37 45" fill="none" xmlns="http://www.w3.org/2000/svg">
<path d="M37 45C36.7361 37.3 31.7619 30.781 24.8844 28.2417C20.8531 31.0016 15.8528 30.8026 12.1156 28.2417C5.23814 30.781 0.268179 37.3 0 45H37Z" fill="#B76524"/>
<path d="M37 45C36.7361 37.3 31.7619 30.781 24.8844 28.2417C20.8531 31.0016 15.8528 30.8026 12.1156 28.2417C5.23814 30.781 0.268179 37.3 0 45H37Z" fill="black" fill-opacity="0.2"/>
<path d="M30.7886 13.7372H6.20704C5.37332 13.7372 4.69745 14.4132 4.69745 15.2469V15.8569C4.69745 16.6907 5.37332 17.3666 6.20704 17.3666H30.7886C31.6224 17.3666 32.2982 16.6907 32.2982 15.8569V15.2469C32.2982 14.4132 31.6224 13.7372 30.7886 13.7372Z" fill="#B76524"/>
<path d="M30.7886 13.7372H6.20704C5.37332 13.7372 4.69745 14.4132 4.69745 15.2469V15.8569C4.69745 16.6907 5.37332 17.3666 6.20704 17.3666H30.7886C31.6224 17.3666 32.2982 16.6907 32.2982 15.8569V15.2469C32.2982 14.4132 31.6224 13.7372 30.7886 13.7372Z" fill="black" fill-opacity="0.2"/>
<path d="M23.2494 27.727C26.5281 25.9534 28.5827 22.523 28.5827 18.7292C28.5827 18.6297 28.5697 18.6644 8.40437 18.6644C8.40437 26.4638 16.5449 31.3477 23.2494 27.727Z" fill="#B76524"/>
<path d="M23.2494 27.727C26.5281 25.9534 28.5827 22.523 28.5827 18.7292C28.5827 18.6297 28.5697 18.6644 8.40437 18.6644C8.40437 26.4638 16.5449 31.3477 23.2494 27.727Z" fill="black" fill-opacity="0.2"/>
<path d="M14.9315 2.04884C10.2816 3.6321 7.37491 8.11366 7.37491 12.4395C29.6121 12.4395 29.6164 12.3962 29.6208 12.4395C29.5083 7.7027 26.4762 3.56288 22.0815 2.05749L21.8393 7.5513C21.7614 9.35084 20.2994 10.7611 18.5086 10.7611C16.7179 10.7611 15.2559 9.35084 15.178 7.5513L14.9315 2.05317V2.04884Z" fill="#B76524"/>
<path d="M14.9315 2.04884C10.2816 3.6321 7.37491 8.11366 7.37491 12.4395C29.6121 12.4395 29.6164 12.3962 29.6208 12.4395C29.5083 7.7027 26.4762 3.56288 22.0815 2.05749L21.8393 7.5513C21.7614 9.35084 20.2994 10.7611 18.5086 10.7611C16.7179 10.7611 15.2559 9.35084 15.178 7.5513L14.9315 2.05317V2.04884Z" fill="black" fill-opacity="0.2"/>
<path d="M16.48 0.327162C16.0518 0.777049 16.1686 0.716488 16.4714 7.49074C16.5189 8.59382 17.4143 9.45899 18.5043 9.45899C19.5943 9.45899 20.4897 8.59382 20.5373 7.49074L20.8228 1.09716C20.8444 0.508847 20.3859 0.011377 19.7976 0.011377C17.1332 0.011377 16.8823 -0.0924431 16.48 0.327162Z" fill="#B76524"/>
<path d="M16.48 0.327162C16.0518 0.777049 16.1686 0.716488 16.4714 7.49074C16.5189 8.59382 17.4143 9.45899 18.5043 9.45899C19.5943 9.45899 20.4897 8.59382 20.5373 7.49074L20.8228 1.09716C20.8444 0.508847 20.3859 0.011377 19.7976 0.011377C17.1332 0.011377 16.8823 -0.0924431 16.48 0.327162Z" fill="black" fill-opacity="0.2"/>
</svg>
